PathFileType	4	(X/Y/Z)	E:\3-PhD\Data\MocapData\ElaboratedData\009\pre\dynamicElaborations\RunA1\RunA1.trc
DataRate	CameraRate	NumFrames	NumMarkers	Units	OrigDataRate	DataStartFrame
200	200	4	54	mm	200	4.160000e+02
Frame#	Time	FHD			LBHD			RBHD			C7			T10			CLAV			LSHO			LUUPA			LMUPA			LDUPA			LLEP			LMEP			LRAD			LUL			LRFIN			RSHO			RUPA1			RMUPA			RDUPA			RLEP			RMEP			RRAD			RUL			RUFIN			RASI			USACR			LSACR			RSACR			LTHI1			LTHI2			LTHI3			LTHI4			LTIB1			LTIB2			LTIB3			LTIB4			LLMAL			LHEE			LMT1			LMT2			RTHI			RTHI2			RTHI3			RTHI4			RLFC			RTIB1			RTIB2			RTIB3			RTIB4			RLMAL			RHEE			RMT1			RMT2			RMT5		
		X1	Y1	Z1	X2	Y2	Z2	X3	Y3	Z3	X4	Y4	Z4	X5	Y5	Z5	X6	Y6	Z6	X7	Y7	Z7	X8	Y8	Z8	X9	Y9	Z9	X10	Y10	Z10	X11	Y11	Z11	X12	Y12	Z12	X13	Y13	Z13	X14	Y14	Z14	X15	Y15	Z15	X16	Y16	Z16	X17	Y17	Z17	X18	Y18	Z18	X19	Y19	Z19	X20	Y20	Z20	X21	Y21	Z21	X22	Y22	Z22	X23	Y23	Z23	X24	Y24	Z24	X25	Y25	Z25	X26	Y26	Z26	X27	Y27	Z27	X28	Y28	Z28	X29	Y29	Z29	X30	Y30	Z30	X31	Y31	Z31	X32	Y32	Z32	X33	Y33	Z33	X34	Y34	Z34	X35	Y35	Z35	X36	Y36	Z36	X37	Y37	Z37	X38	Y38	Z38	X39	Y39	Z39	X40	Y40	Z40	X41	Y41	Z41	X42	Y42	Z42	X43	Y43	Z43	X44	Y44	Z44	X45	Y45	Z45	X46	Y46	Z46	X47	Y47	Z47	X48	Y48	Z48	X49	Y49	Z49	X50	Y50	Z50	X51	Y51	Z51	X52	Y52	Z52	X53	Y53	Z53	X54	Y54	Z54	

488	2.435000	-813.745903	1575.410804	378.157900	-989.221963	1600.877944	286.499762	-954.104761	1580.097374	406.093085	-1051.682008	1457.380734	319.771665	-1221.259613	1157.970385	276.833282	-943.013676	1330.002484	312.645579	-950.076664	1401.265631	175.061154	-1030.668476	1263.826522	44.574091	-1014.386926	1221.038478	62.989957	-1053.244316	1202.909674	19.940138	-1110.737828	1106.141844	-21.059416	-1163.206986	1099.310777	32.569013	-1040.106205	871.988005	59.112563	-1084.503976	840.013673	11.041817	-988.217510	833.552525	38.762674	-999.223354	1390.377493	474.135473	-1088.793983	1245.744725	559.756382	-1067.979735	1206.060868	550.721722	-1117.987641	1186.964494	576.949207	-1173.174506	1060.221903	595.066486	-1192.520508	1050.884481	527.824891	-967.340748	903.472217	554.847676	-1007.884479	858.183165	589.207808	-911.650938	885.425487	607.783341	-1127.359237	951.011400	399.006806	-1266.417768	1078.367032	277.281340	-1277.963274	1047.181266	250.448136	-1282.035919	1051.436545	309.080664	-1188.419495	695.340826	98.647852	-1157.282146	615.687263	100.979120	-1112.995915	615.230387	117.933569	-1188.199490	562.168010	106.296934	-1326.885674	422.856149	180.521299	-1362.458359	494.293430	136.638882	-1370.638064	457.610480	157.418272	-1443.511026	478.713599	199.028495	-1572.256647	576.176273	198.325000	-1570.958048	662.516115	243.113172	-1672.347755	467.914650	282.854159	-1680.301066	463.838861	237.590634	-1155.932816	724.541144	481.009132	-1106.274557	682.347279	483.509462	-1073.256620	689.737961	477.139356	-1111.913099	598.573613	460.313463	-1063.305744	498.963568	445.737085	-1051.819720	287.854683	386.857713	-1135.974694	221.469994	413.825701	-1093.213062	213.409604	397.593228	-1094.770004	170.389323	360.175317	-1174.322456	90.534239	383.935141	-1242.144169	46.828706	330.642905	-1013.758232	56.177674	326.942968	-1017.687533	55.392920	368.280643	-1060.748377	33.285714	421.095537	
489	2.440000	-785.141362	1576.324220	377.744356	-961.205136	1600.293920	286.723076	-925.450419	1580.165630	406.191787	-1023.368568	1455.601161	319.839614	-1190.796617	1154.773348	276.262937	-913.039643	1329.278963	313.299101	-921.859803	1398.625005	173.747763	-1006.793398	1262.948665	43.731220	-991.793218	1219.622858	61.823099	-1031.171702	1202.924983	18.845111	-1092.984950	1109.299260	-22.454343	-1145.381954	1104.087563	31.287327	-1039.661005	867.350677	48.574765	-1087.000423	840.609131	-0.422473	-991.134646	825.242836	26.590481	-972.493055	1389.855237	474.434096	-1053.148376	1239.850998	558.471481	-1029.194527	1201.722726	549.703113	-1077.736772	1179.019047	575.967657	-1122.244496	1047.683618	593.419130	-1141.772108	1037.317246	526.750019	-903.784657	912.143566	546.531720	-938.509002	862.905248	581.369231	-845.092994	899.144463	597.866497	-1098.539938	948.980620	401.143228	-1235.497086	1076.869719	276.403897	-1247.150417	1045.313000	249.928590	-1251.437759	1050.506973	308.507039	-1146.486841	694.348702	99.502113	-1111.529278	616.340637	101.805704	-1067.481756	617.754948	119.232492	-1139.853176	561.422903	106.519750	-1271.545929	423.370491	180.042651	-1306.749142	494.674129	135.711670	-1315.018839	458.079761	156.644829	-1388.295805	479.261886	197.510098	-1516.762975	576.320611	196.294526	-1518.184664	662.942182	241.550867	-1616.577398	466.019521	277.820211	-1622.799231	461.998638	232.277619	-1131.730375	721.977827	481.717560	-1083.310388	678.356836	484.397766	-1050.003326	684.691886	478.510664	-1091.221064	595.017124	460.843515	-1044.853014	494.077964	446.210669	-1041.984304	282.966948	386.087944	-1128.776108	220.359682	413.074557	-1086.544038	210.340279	396.703073	-1090.473044	167.560539	358.776401	-1173.690177	91.664046	383.126485	-1242.484732	48.343737	329.989837	-1014.026890	55.426287	326.225820	-1018.078905	55.002449	367.534384	-1061.373902	33.652128	420.720510	
490	2.445000	-756.613953	1577.551436	377.271699	-933.292693	1599.566250	286.865302	-896.874304	1580.240871	406.204592	-994.970582	1453.914352	319.898790	-1160.420728	1151.736457	275.776286	-883.046996	1328.573552	313.799127	-893.547603	1396.090932	172.379007	-983.271331	1262.851170	42.664024	-969.395182	1218.943134	59.910808	-1009.610194	1203.956765	17.339318	-1075.350702	1113.342392	-24.096592	-1127.551027	1109.681557	29.711399	-1038.873602	865.803727	38.774995	-1088.497351	844.117817	-10.966478	-993.709363	820.576202	15.236118	-945.416776	1389.476596	474.699279	-1017.067987	1234.851097	557.069347	-990.076439	1198.479217	548.586640	-1037.056952	1172.305859	574.692670	-1070.372787	1037.192221	591.326721	-1090.079739	1025.817815	525.314989	-841.488921	924.076321	537.893397	-870.053124	871.574983	573.249392	-780.306530	916.546529	587.592343	-1069.884468	947.016227	403.219255	-1204.701705	1075.557810	275.594988	-1216.405458	1043.670029	249.416931	-1220.897503	1049.687999	307.952811	-1104.470730	694.313739	100.495851	-1065.511010	618.291515	102.920211	-1021.830070	621.718279	120.848729	-1090.974034	562.037938	107.026737	-1215.576692	424.363362	179.866489	-1250.828284	495.217963	135.016165	-1258.957735	458.701506	156.117375	-1332.810876	479.415089	196.125202	-1461.774250	575.069501	194.246676	-1466.608628	661.898545	239.813625	-1560.440012	462.191940	272.952178	-1564.833565	458.158338	227.134893	-1107.762456	719.660843	482.266015	-1060.615978	674.681770	485.172428	-1027.069786	680.016233	479.742807	-1070.844844	591.836357	461.447162	-1026.765955	489.694969	446.688445	-1032.476953	278.713478	385.611880	-1121.702353	219.933413	412.711179	-1080.069752	207.991192	396.207835	-1086.295093	165.535013	357.850815	-1172.852328	93.444223	382.696807	-1242.680246	50.828538	329.658469	-1014.237810	55.131207	325.859835	-1018.368108	54.880256	367.058369	-1061.938811	34.033789	420.468357	
491	2.450000	-728.139102	1579.066591	376.775243	-905.414321	1598.745161	286.909021	-868.355730	1580.327839	406.124164	-966.434268	1452.421810	319.923658	-1130.047837	1148.978818	275.411360	-853.035126	1327.932257	314.083302	-865.132643	1393.770677	170.946672	-960.122591	1263.692242	41.400196	-947.188765	1219.154293	57.297063	-988.567170	1206.156082	15.500753	-1057.789497	1118.368937	-25.933959	-1109.644206	1116.193103	27.932719	-1037.433000	867.117729	29.816880	-1088.749490	850.241506	-20.519356	-995.558893	819.272078	4.821212	-917.874160	1389.337607	474.863686	-980.568707	1230.855121	555.583539	-950.701195	1196.404772	547.386313	-996.064952	1166.925729	573.141682	-1017.831734	1028.923780	588.808442	-1037.721137	1016.605118	523.503905	-780.857915	939.150028	529.014511	-803.017471	884.089673	564.870688	-717.781669	937.433390	577.089888	-1041.241747	945.158935	405.155308	-1173.953338	1074.432252	274.878121	-1185.646548	1042.272603	248.909699	-1190.354506	1048.951832	307.413055	-1062.451423	695.290065	101.611151	-1019.333573	621.614365	104.309780	-976.158797	627.197475	122.765767	-1041.673034	564.113921	107.838512	-1159.134829	425.920931	180.043999	-1194.871295	496.008821	134.619595	-1202.621617	459.552480	155.893146	-1277.200131	479.225668	194.951062	-1407.417308	572.459614	192.223537	-1416.313997	659.340862	237.951664	-1503.965281	456.482483	268.329540	-1506.485887	452.414588	222.251750	-1083.972344	717.547584	482.668684	-1038.148480	671.266158	485.858898	-1004.411618	675.636547	480.845728	-1050.790386	588.977779	462.170453	-1009.125894	485.665629	447.216734	-1023.268172	275.017125	385.428183	-1114.697064	220.072459	412.762884	-1073.733238	206.258463	396.105303	-1082.178449	164.215550	357.385432	-1171.718322	95.756641	382.617119	-1242.686190	54.218905	329.698970	-1014.353517	55.099432	325.776951	-1018.529292	54.861820	366.807505	-1062.400826	34.346737	420.342464	
